<?xml version="1.0" standalone="no"?>
<!DOCTYPE svg PUBLIC "-//W3C//DTD SVG 20010904//EN"
 "http://www.w3.org/TR/2001/REC-SVG-20010904/DTD/svg10.dtd">
<svg version="1.0" xmlns="http://www.w3.org/2000/svg"
 width="144.000000pt" height="144.000000pt" viewBox="0 0 144.000000 144.000000"
 preserveAspectRatio="xMidYMid meet">
<metadata>
Created by potrace 1.14, written by Peter Selinger 2001-2017
</metadata>
<g transform="translate(0.000000,144.000000) scale(0.100000,-0.100000)"
fill="#000000" stroke="none">
<path d="M205 1258 c-3 -7 -4 -247 -3 -533 l3 -520 533 -3 532 -2 0 535 0 535
-530 0 c-415 0 -532 -3 -535 -12z m1010 -523 l0 -470 -477 -3 -478 -2 0 475 0
475 478 -2 477 -3 0 -470z"/>
<path d="M435 1107 c-3 -6 -4 -176 -3 -377 l3 -365 303 -3 302 -2 0 381 0 380
-22 -3 c-18 -2 -49 -49 -148 -225 -69 -122 -129 -222 -135 -223 -5 0 -55 82
-110 181 -55 100 -112 201 -127 225 -27 43 -54 56 -63 31z m565 -392 l0 -305
-260 0 -260 0 0 300 c0 165 1 300 3 300 2 0 55 -90 118 -200 92 -161 118 -200
135 -200 17 0 37 28 99 138 105 185 157 272 161 272 2 0 4 -137 4 -305z"/>
</g>
</svg>
