<?xml version="1.0" standalone="no"?>
<!DOCTYPE svg PUBLIC "-//W3C//DTD SVG 20010904//EN"
 "http://www.w3.org/TR/2001/REC-SVG-20010904/DTD/svg10.dtd">
<svg version="1.0" xmlns="http://www.w3.org/2000/svg"
 width="159.000000pt" height="159.000000pt" viewBox="0 0 159.000000 159.000000"
 preserveAspectRatio="xMidYMid meet">
<metadata>
Created by potrace 1.14, written by Peter Selinger 2001-2017
</metadata>
<g transform="translate(0.000000,159.000000) scale(0.100000,-0.100000)"
fill="#000000" stroke="none">
<path d="M125 1497 c-3 -7 -4 -316 -2 -687 l2 -675 688 -1 687 -2 1 27 c1 31
1 1296 0 1328 l-1 22 -686 0 c-523 0 -686 -3 -689 -12z m1306 -87 c0 -35 0
-1171 0 -1192 -1 -15 -49 -16 -618 -15 l-618 2 -2 605 c-2 333 -1 610 1 615 2
7 218 10 620 10 l616 0 1 -25z"/>
<path d="M431 1310 c-11 -6 -13 -101 -14 -486 l0 -479 392 -1 c277 -1 391 2
392 10 1 6 2 222 3 480 1 460 1 469 -19 476 -25 9 -45 2 -45 -16 0 -8 -4 -14
-9 -14 -5 0 -11 -8 -14 -17 -3 -10 -24 -49 -46 -88 -22 -38 -52 -92 -67 -120
-15 -27 -30 -51 -35 -53 -5 -2 -9 -8 -9 -13 0 -5 -11 -27 -25 -49 -14 -22 -22
-40 -18 -40 5 0 3 -4 -3 -8 -6 -4 -30 -42 -53 -85 -24 -43 -48 -76 -54 -74
-12 4 -38 45 -99 157 -19 36 -45 83 -57 105 -183 324 -190 334 -220 315z m723
-514 c1 -343 -1 -395 -14 -399 -8 -2 -161 -3 -340 -3 l-325 1 -3 389 c-1 253
1 393 8 400 7 7 10 4 10 -7 0 -9 5 -17 10 -17 6 0 10 -5 10 -11 0 -7 13 -33
29 -59 16 -26 46 -78 67 -116 20 -38 42 -72 48 -76 6 -4 8 -8 4 -8 -4 0 10
-29 32 -65 22 -36 40 -69 40 -74 0 -5 3 -11 8 -13 4 -1 16 -20 26 -40 15 -29
25 -38 45 -38 23 0 35 16 101 133 41 72 79 135 85 139 5 4 7 8 2 8 -4 0 4 18
18 40 14 22 25 44 25 50 0 5 4 10 9 10 5 0 11 8 14 18 4 9 17 35 29 57 13 22
30 51 37 63 7 13 15 21 18 18 4 -3 7 -183 7 -400z"/>
</g>
</svg>
